<svg xmlns="http://www.w3.org/2000/svg" width="25" height="24" fill="none">
  <path fill="#937C6F" d="M13.82 13a4.13 4.13 0 0 0-2.1-1.56 8.52 8.52 0 0 0-5.43 0c-.88.29-1.58.81-2.12 1.56h9.65ZM9 9a10 10 0 0 1 2.34.29 8 8 0 0 1 2.2.89c.67.4 1.25.9 1.74 1.5.48.6.8 1.3.97 2.12.07.32 0 .6-.2.84a.96.96 0 0 1-.78.36H2.74a.96.96 0 0 1-.78-.36c-.2-.24-.27-.52-.2-.84.17-.82.5-1.53.99-2.13.49-.6 1.07-1.1 1.75-1.5A9.28 9.28 0 0 1 9 9ZM2.5 19a.97.97 0 0 1-.71-.29.97.97 0 0 1-.29-.71c0-.28.1-.52.29-.71.19-.2.43-.29.71-.29h13c.28 0 .52.1.71.29.2.19.29.43.29.71 0 .28-.1.52-.29.71a.94.94 0 0 1-.71.29h-13Zm17.7 4h-.7a.97.97 0 0 1-.71-.29.97.97 0 0 1-.29-.71c0-.28.1-.52.29-.71.19-.2.43-.29.71-.29h.4l1.4-14h-8.6a.97.97 0 0 1-.71-.29.97.97 0 0 1-.29-.71c0-.28.1-.52.29-.71.19-.2.43-.29.71-.29h3.8V2c0-.28.1-.52.29-.71.19-.2.43-.29.71-.29.28 0 .52.1.71.29.2.19.29.43.29.71v3h3.9c.3 0 .55.1.75.33.2.21.28.47.25.77l-1.55 15.45A1.65 1.65 0 0 1 20.2 23ZM2.5 23a.97.97 0 0 1-.71-.29.97.97 0 0 1-.29-.71c0-.28.1-.52.29-.71.19-.2.43-.29.71-.29h13c.28 0 .52.1.71.29.2.19.29.43.29.71 0 .28-.1.52-.29.71a.94.94 0 0 1-.71.29h-13Z"/>
</svg>