<svg xmlns="http://www.w3.org/2000/svg" width="25" height="24" fill="none">
  <path fill="#937C6F" d="m21.9 14.25-7.15 7.15a2 2 0 0 1-2.85 0l-8.82-8.82a1.94 1.94 0 0 1-.58-1.4V4c0-.55.2-1.02.59-1.41.39-.4.86-.59 1.41-.59h7.18a2.08 2.08 0 0 1 1.42.6l8.8 8.83c.2.2.35.42.44.67a2.17 2.17 0 0 1 0 1.49 2 2 0 0 1-.44.66ZM13.33 20l7.15-7.15L11.65 4H4.5v7.15L13.32 20ZM7 8c.42 0 .77-.15 1.06-.44.3-.29.44-.64.44-1.06 0-.42-.15-.77-.44-1.06A1.4 1.4 0 0 0 7 5c-.42 0-.77.15-1.06.44-.3.29-.44.64-.44 1.06 0 .42.15.77.44 1.06.29.3.64.44 1.06.44Z"/>
</svg>