<svg xmlns="http://www.w3.org/2000/svg" width="25" height="24" fill="none">
  <path fill="#937C6F" d="M3.5 10V4c0-.28.1-.52.29-.71.19-.2.43-.29.71-.29h6c.28 0 .52.1.71.29.2.19.29.43.29.71v6c0 .28-.1.52-.29.71a.94.94 0 0 1-.71.29h-6a.97.97 0 0 1-.71-.29.97.97 0 0 1-.29-.71Zm2-1h4V5h-4v4Zm-2 11v-6c0-.28.1-.52.29-.71.19-.2.43-.29.71-.29h6c.28 0 .52.1.71.29.2.19.29.43.29.71v6c0 .28-.1.52-.29.71a.94.94 0 0 1-.71.29h-6a.97.97 0 0 1-.71-.29.97.97 0 0 1-.29-.71Zm2-1h4v-4h-4v4Zm8-9V4c0-.28.1-.52.29-.71.19-.2.43-.29.71-.29h6c.28 0 .52.1.71.29.2.19.29.43.29.71v6c0 .28-.1.52-.29.71a.94.94 0 0 1-.71.29h-6a.97.97 0 0 1-.71-.29.97.97 0 0 1-.29-.71Zm2-1h4V5h-4v4Zm4 12v-2h2v2h-2Zm-6-6v-2h2v2h-2Zm2 2v-2h2v2h-2Zm-2 2v-2h2v2h-2Zm2 2v-2h2v2h-2Zm2-2v-2h2v2h-2Zm0-4v-2h2v2h-2Zm2 2v-2h2v2h-2Z"/>
</svg>