<svg xmlns="http://www.w3.org/2000/svg" width="25" height="24" fill="none">
  <path fill="#937C6F" d="M10.75 5.77a2.36 2.36 0 0 1 3.5 0l2.72 2.96c.02.03.05.04.07.04h.01l.08-.02 3.05-2.1v-.01a2.1 2.1 0 0 1 2.28-.08A2.1 2.1 0 0 1 23.5 8.6l-.89 8.8a2.11 2.11 0 0 1-2.1 1.9h-16a2.12 2.12 0 0 1-2.1-1.9L1.5 8.6a2.1 2.1 0 0 1 1.03-2.04 2.1 2.1 0 0 1 2.28.08l3.05 2.11c.03.02.06.03.09.02.02 0 .05-.01.07-.04l2.72-2.96ZM12.5 7c-.1 0-.2.04-.27.12L9.5 10.09a2.12 2.12 0 0 1-2.76.31h-.01L5.21 9.34 3.7 8.3a.15.15 0 0 0-.04-.02h-.03l-.06.01a.14.14 0 0 0-.05.05v.07l.88 8.8c0 .02.01.05.04.07.02.02.04.03.08.03H20.5c.03 0 .06-.01.08-.03a.11.11 0 0 0 .04-.08m0 0 .89-8.8v-.04l-.01-.02a.13.13 0 0 0-.05-.05.13.13 0 0 0-.06-.02h-.03l-.03.03-1.53 1.05-1.54 1.06a2.11 2.11 0 0 1-2.75-.31l-2.73-2.97A.36.36 0 0 0 12.5 7" clip-rule="evenodd"/>
</svg>