<svg xmlns="http://www.w3.org/2000/svg" fill="none" viewBox="0 0 21 23" height="23" width="21">
<path fill="#D92926" d="M8.21715 16.2747C9.03735 17.124 9.85756 19.6787 12.3247 18.8294C14.7919 17.9801 13.2499 15.6088 15.6121 12.0213C16.7407 10.3091 15.2512 7.21759 13.1449 6.06252C10.4809 4.59491 8.38119 4.34351 6.96388 7.28554C5.35629 10.6216 5.74999 13.7199 8.21715 16.2679V16.2747Z"></path>
<path stroke-linejoin="round" stroke-linecap="round" stroke="black" d="M17.0481 7.87195L16.8052 7.03984C16.8902 6.94873 16.9753 6.85763 17.0481 6.76045C19.344 3.88754 16.3982 -0.242631 12.8633 0.777765L3.81336 3.38342C0.278412 4.40382 -0.019203 9.46328 3.455 10.678C3.57041 10.7206 3.69188 10.757 3.81336 10.7874L7.14179 22.3458L20 18.0759L19.0707 14.8629"></path>
</svg>
