<svg width="120" height="38" xmlns="http://www.w3.org/2000/svg" version="1.1" viewBox="0 0 675.2 208.3">
  <!-- Generator: Adobe Illustrator 28.7.0, SVG Export Plug-In . SVG Version: 1.2.0 Build 136)  -->
  <g>
    <g id="AW">
      <g>
        <path d="M535,43.1"/>
        <g>
          <path d="M322,131c0,25.3-20.5,45.8-45.8,45.8s-45.8-20.5-45.8-45.8V44.2h-31.6v86.8c0,42.7,34.6,77.3,77.3,77.3s77.3-34.6,77.3-77.3V44.2h-31.6v86.8h0Z"/>
          <path d="M423,129.4V0h-31.6v129.4c0,42.7,34.6,77.3,77.3,77.3v-31.6c-25.3,0-45.8-20.5-45.8-45.8h0Z"/>
          <path d="M589.4,110.8c20.6-14.9,34-39.2,34-66.6h-31.6c0,30.5-24.7,55.2-55.2,55.2h-4.7V0h-31.6v205.2h31.6v-74.2h20.5c30.5,0,55.2,24.7,55.2,55.2v18.9h31.6v-18.9c0-33.9-20.5-63-49.8-75.5h0Z"/>
          <path d="M86.8,41c-21.4,0-40.8,8.7-55.2,22.8V0H0v205.2h31.6v-19.7c14.4,14.1,33.9,22.8,55.2,22.8,44.5,0,80.5-37.4,80.5-83.7s-36-83.7-80.5-83.7h0ZM83.7,176.8c-28.8,0-52.1-23.3-52.1-52.1s23.3-52.1,52.1-52.1,52.1,23.3,52.1,52.1-23.3,52.1-52.1,52.1Z"/>
        </g>
      </g>
      <path d="M663.3,25.4c-3.4,0-6.3-1.1-8.6-3.5-2.3-2.3-3.4-5.1-3.4-8.5s1.1-6.2,3.4-8.5,5.1-3.4,8.5-3.4,6.3,1.2,8.5,3.4c2.2,2.3,3.4,5.1,3.4,8.5s-1.1,6.2-3.3,8.5-5.1,3.4-8.5,3.4h0ZM663.2,3.5c-2.8,0-5.2,1-7.1,2.9-1.9,1.9-2.8,4.3-2.8,7.1s1,5.1,2.8,7.1c1.9,2,4.3,2.9,7.1,2.9s5.2-1,7.1-2.9c1.9-1.9,2.8-4.3,2.8-7.1s-1-5.2-2.8-7.1c-1.9-1.9-4.3-2.9-7.1-2.9h0ZM660.9,15.5v4.7h-2.6V6.9h5c1.7,0,3,.3,3.9,1s1.3,1.6,1.3,2.9-.2,2.2-.5,2.9c-.3.6-.9,1.1-1.8,1.5l2.5,5h-2.8l-2.3-4.7h-2.7ZM660.9,9v4.4h2.7c.8,0,1.4-.2,1.8-.5s.5-.9.5-1.7c0-1.5-.9-2.2-2.8-2.2,0,0-2.2,0-2.2,0Z"/>
    </g>
  </g>
</svg>